<svg xmlns="http://www.w3.org/2000/svg" viewBox="0 0 100 100">
  <!-- Bottom disc side/thickness -->
  <path d="M12 62 Q12 77 50 77 Q88 77 88 62 L88 70 Q88 85 50 85 Q12 70 12 70 Z" fill="#6a0e00"/>
  <!-- Bottom disc top face -->
  <ellipse cx="50" cy="60" rx="38" ry="14" fill="#aa1a00" stroke="#5a0000" stroke-width="3"/>
  <!-- Bottom disc inner ring -->
  <ellipse cx="50" cy="60" rx="26" ry="9" fill="none" stroke="#cc3300" stroke-width="2"/>
  <!-- Top disc side/thickness -->
  <path d="M14 44 Q14 57 50 57 Q86 57 86 44 L86 51 Q86 64 50 64 Q14 64 14 51 Z" fill="#6a0e00"/>
  <!-- Top disc top face -->
  <ellipse cx="50" cy="42" rx="36" ry="13" fill="#aa1a00" stroke="#5a0000" stroke-width="3"/>
  <!-- Top disc inner ring -->
  <ellipse cx="50" cy="42" rx="24" ry="8" fill="none" stroke="#cc3300" stroke-width="2"/>
  <!-- Centre dot -->
  <ellipse cx="50" cy="42" rx="6" ry="3.5" fill="#cc3300"/>
</svg>
