<svg xmlns="http://www.w3.org/2000/svg" viewBox="0 0 200 200">
  <!-- Outer rays -->
  <polygon points="100,0 112,80 130,10 118,85 150,30 128,92 170,60 132,100 175,95 135,108 180,140 132,118 160,165 122,125 130,180 108,130 100,190 92,130 70,180 78,125 40,165 68,118 20,140 65,108 25,95 68,100 30,60 72,92 50,30 82,85 70,10 88,85 100,0" fill="#ff6600" opacity="0.9"/>
  <!-- Mid flash -->
  <polygon points="100,30 108,88 125,40 115,90 142,60 120,95 148,85 122,102 150,115 122,112 142,140 118,120 128,155 106,128 100,158 94,128 72,155 82,120 58,140 78,112 50,115 78,102 52,85 80,95 58,60 85,90 75,40 92,88 100,30" fill="#ffaa00" opacity="0.95"/>
  <!-- Bright core -->
  <circle cx="100" cy="100" r="45" fill="#ffee44" opacity="0.9"/>
  <circle cx="100" cy="100" r="28" fill="#ffffff" opacity="0.85"/>
</svg>
