<svg xmlns="http://www.w3.org/2000/svg" viewBox="0 0 50 50">
  <!-- Left star (small) -->
  <polygon points="10,18 11.5,23 17,23 12.5,26 14,31 10,28 6,31 7.5,26 3,23 8.5,23" fill="#f0c040" stroke="#b8860b" stroke-width="0.8"/>
  <!-- Right star (small) -->
  <polygon points="40,18 41.5,23 47,23 42.5,26 44,31 40,28 36,31 37.5,26 33,23 38.5,23" fill="#f0c040" stroke="#b8860b" stroke-width="0.8"/>
  <!-- Center star (large) -->
  <polygon points="25,6 27.5,14 36,14 29.5,19 32,27 25,22 18,27 20.5,19 14,14 22.5,14" fill="#f0c040" stroke="#b8860b" stroke-width="1.2"/>
</svg>
